# xmcd CD database file
#
# Track frame offsets:
#	150
#	28662
#	52700
#
# Disc length: 1123 seconds
#
# Revision: 0
# Processed by: cddbd v1.5.1PL0 Copyright (c) Steve Scherf et al.
# Submitted via: CDex 1.51
#
DISCID=18046103
DTITLE=かの香織 - パリのランデブー
DYEAR=1995
DGENRE=JPop
TTITLE0=パリのランデブー
TTITLE1=パリのランデブー(…そして旅は続く)
TTITLE2=パリのランデブー(第3の風景)
EXTD=YEAR: 1995
EXTT0=
EXTT1=
EXTT2=
PLAYORDER=
